<svg xmlns="http://www.w3.org/2000/svg" viewBox="0 0 520 160" role="img" aria-label="GIG Gulf Insurance Oman">
  <defs>
    <linearGradient id="dropFill" x1="0" y1="0" x2="1" y2="1">
      <stop offset="0%" stop-color="#c9a46a"/>
      <stop offset="100%" stop-color="#9a7340"/>
    </linearGradient>
  </defs>

  <!-- Wordmark -->
  <text x="8" y="62" font-family="Arial Black, Arial, Helvetica, sans-serif" font-size="58" font-weight="900" fill="#0b2348">GIG</text>
  <text x="12" y="92" font-family="Arial, Helvetica, sans-serif" font-size="18" font-weight="700" fill="#0b2348" letter-spacing="1">GULF</text>
  <text x="78" y="92" font-family="Arial, Tahoma, sans-serif" font-size="18" font-weight="700" fill="#0b2348">'D.DJ,</text>
  <text x="12" y="118" font-family="Arial, Helvetica, sans-serif" font-size="16" font-weight="700" fill="#0b2348" letter-spacing="0.5">INSURANCE</text>
  <text x="128" y="118" font-family="Arial, Tahoma, sans-serif" font-size="16" font-weight="700" fill="#0b2348">DD*#EJF</text>

  <!-- Drop mark -->
  <path d="M390 18c28 34 58 58 58 92 0 32-26 50-58 50s-58-18-58-50c0-34 30-58 58-92z" fill="url(#dropFill)"/>
  <path d="M390 18c-10 18-34 42-48 68" fill="none" stroke="#0b2348" stroke-width="10" stroke-linecap="round"/>
  <path d="M352 78c-6 14-10 28-10 40" fill="none" stroke="#0b2348" stroke-width="8" stroke-linecap="round"/>

  <!-- Oman badge -->
  <rect x="352" y="118" width="76" height="34" rx="7" fill="#b08a4e"/>
  <text x="390" y="134" text-anchor="middle" font-family="Arial, Tahoma, sans-serif" font-size="12" font-weight="700" fill="#fff">9OE'F</text>
  <text x="390" y="147" text-anchor="middle" font-family="Arial, Helvetica, sans-serif" font-size="10" font-weight="700" fill="#fff" letter-spacing="1">OMAN</text>
</svg>
