<svg xmlns="http://www.w3.org/2000/svg" viewBox="0 0 560 170" role="img" aria-label="GIG Gulf Insurance Oman">
  <!-- GIG wordmark -->
  <text x="10" y="58" font-family="Arial Black, Helvetica, Arial, sans-serif" font-size="54" font-weight="900" fill="#0B2348">GIG</text>

  <!-- الخليج / GULF -->
  <text x="14" y="84" font-family="Tahoma, Arial, sans-serif" font-size="15" font-weight="700" fill="#0B2348">&#1575;&#1604;&#1582;&#1604;&#1610;&#1580;</text>
  <text x="78" y="84" font-family="Arial, Helvetica, sans-serif" font-size="15" font-weight="700" fill="#0B2348" letter-spacing="1.5">GULF</text>

  <line x1="14" y1="94" x2="188" y2="94" stroke="#0B2348" stroke-width="1.5"/>

  <!-- للتأمين / INSURANCE -->
  <text x="14" y="116" font-family="Tahoma, Arial, sans-serif" font-size="14" font-weight="700" fill="#0B2348">&#1604;&#1604;&#1578;&#1571;&#1605;&#1610;&#1606;</text>
  <text x="92" y="116" font-family="Arial, Helvetica, sans-serif" font-size="14" font-weight="700" fill="#0B2348" letter-spacing="1">INSURANCE</text>

  <!-- Drop mark -->
  <path d="M430 16c34 40 70 68 70 108 0 36-30 56-70 56s-70-20-70-56c0-40 36-68 70-108z" fill="#C4A46A"/>
  <path d="M430 16c-18 28-52 58-66 96 0 0-2 8-2 14 0 28 20 46 48 52" fill="#0B2348"/>
  <path d="M398 54c18 22 28 40 32 62" fill="none" stroke="#FFFFFF" stroke-width="10" stroke-linecap="round"/>

  <!-- Oman badge -->
  <rect x="392" y="128" width="78" height="34" rx="7" fill="#C4A46A"/>
  <text x="431" y="144" text-anchor="middle" font-family="Tahoma, Arial, sans-serif" font-size="12" font-weight="700" fill="#FFFFFF">&#1593;&#1615;&#1605;&#1575;&#1606;</text>
  <text x="431" y="157" text-anchor="middle" font-family="Arial, Helvetica, sans-serif" font-size="10" font-weight="700" fill="#FFFFFF" letter-spacing="1.2">OMAN</text>
</svg>
